<svg width="480" height="466" viewBox="0 0 480 466" fill="none" xmlns="http://www.w3.org/2000/svg">
<rect width="480" height="466" rx="32" fill="#D9E1FF"/>
<rect x="46" y="188.668" width="121" height="45" rx="22.5" fill="#EBC84F"/>
<path d="M83.388 203.316H95.676V205.884H83.388V203.316ZM88.068 200.46H90.876V204.492H88.068V200.46ZM85.908 206.268L88.596 206.916C88.212 207.956 87.708 208.964 87.084 209.94C86.46 210.916 85.82 211.732 85.164 212.388C85.004 212.228 84.788 212.044 84.516 211.836C84.26 211.628 83.988 211.42 83.7 211.212C83.428 211.004 83.18 210.844 82.956 210.732C83.596 210.188 84.172 209.516 84.684 208.716C85.212 207.916 85.62 207.1 85.908 206.268ZM90.444 210.78L93.324 211.452C92.556 213.932 91.492 216.148 90.132 218.1C88.772 220.036 87.18 221.62 85.356 222.852C85.228 222.66 85.036 222.42 84.78 222.132C84.54 221.844 84.284 221.556 84.012 221.268C83.74 220.98 83.492 220.748 83.268 220.572C85.012 219.564 86.492 218.212 87.708 216.516C88.924 214.82 89.836 212.908 90.444 210.78ZM90.372 207.372L92.532 206.196C92.868 206.564 93.196 206.972 93.516 207.42C93.852 207.868 94.148 208.308 94.404 208.74C94.676 209.172 94.884 209.572 95.028 209.94L92.7 211.26C92.588 210.892 92.404 210.484 92.148 210.036C91.908 209.588 91.628 209.132 91.308 208.668C91.004 208.188 90.692 207.756 90.372 207.372ZM85.044 213.012L87.132 211.308C87.996 212.028 88.884 212.828 89.796 213.708C90.708 214.572 91.556 215.444 92.34 216.324C93.124 217.204 93.74 218.012 94.188 218.748L91.884 220.716C91.468 219.964 90.884 219.14 90.132 218.244C89.396 217.332 88.58 216.42 87.684 215.508C86.788 214.596 85.908 213.764 85.044 213.012ZM96.948 204.66H105.78V207.324H96.948V204.66ZM97.452 200.268L100.308 200.652C100.068 202.3 99.748 203.908 99.348 205.476C98.964 207.028 98.5 208.476 97.956 209.82C97.412 211.148 96.78 212.308 96.06 213.3C95.916 213.124 95.708 212.908 95.436 212.652C95.18 212.38 94.908 212.116 94.62 211.86C94.348 211.604 94.108 211.396 93.9 211.236C94.54 210.388 95.092 209.388 95.556 208.236C96.02 207.068 96.404 205.804 96.708 204.444C97.028 203.084 97.276 201.692 97.452 200.268ZM101.628 206.268L104.46 206.532C104.14 209.268 103.612 211.676 102.876 213.756C102.156 215.836 101.156 217.628 99.876 219.132C98.612 220.62 96.972 221.868 94.956 222.876C94.876 222.668 94.74 222.404 94.548 222.084C94.356 221.764 94.148 221.444 93.924 221.124C93.716 220.82 93.524 220.572 93.348 220.38C95.172 219.564 96.644 218.516 97.764 217.236C98.9 215.956 99.764 214.404 100.356 212.58C100.964 210.756 101.388 208.652 101.628 206.268ZM98.628 206.82C98.932 208.852 99.372 210.756 99.948 212.532C100.54 214.308 101.316 215.876 102.276 217.236C103.236 218.58 104.428 219.644 105.852 220.428C105.644 220.62 105.412 220.852 105.156 221.124C104.916 221.412 104.684 221.708 104.46 222.012C104.252 222.316 104.076 222.596 103.932 222.852C102.38 221.876 101.092 220.628 100.068 219.108C99.06 217.572 98.244 215.804 97.62 213.804C97.012 211.788 96.516 209.588 96.132 207.204L98.628 206.82ZM116.94 200.292H119.916V203.652H116.94V200.292ZM116.94 214.332H119.916V222.828H116.94V214.332ZM107.676 215.868H129.372V218.532H107.676V215.868ZM108.468 202.62H128.628V205.236H108.468V202.62ZM126.204 205.524L128.772 206.748C128.164 207.308 127.532 207.852 126.876 208.38C126.22 208.892 125.62 209.34 125.076 209.724L122.964 208.596C123.332 208.324 123.708 208.012 124.092 207.66C124.492 207.308 124.876 206.948 125.244 206.58C125.628 206.196 125.948 205.844 126.204 205.524ZM116.724 204.492L119.148 205.404C118.668 206.028 118.172 206.652 117.66 207.276C117.164 207.9 116.708 208.428 116.292 208.86L114.492 208.068C114.748 207.732 115.012 207.356 115.284 206.94C115.556 206.524 115.82 206.1 116.076 205.668C116.332 205.236 116.548 204.844 116.724 204.492ZM120.324 206.244L122.556 207.276C121.9 208.044 121.18 208.844 120.396 209.676C119.612 210.492 118.828 211.276 118.044 212.028C117.26 212.764 116.516 213.412 115.812 213.972L114.132 213.036C114.836 212.444 115.564 211.764 116.316 210.996C117.084 210.212 117.82 209.404 118.524 208.572C119.228 207.74 119.828 206.964 120.324 206.244ZM113.292 208.332L114.636 206.7C115.1 206.972 115.596 207.284 116.124 207.636C116.652 207.988 117.156 208.34 117.636 208.692C118.116 209.028 118.508 209.34 118.812 209.628L117.396 211.5C117.108 211.196 116.732 210.86 116.268 210.492C115.804 210.108 115.308 209.732 114.78 209.364C114.252 208.98 113.756 208.636 113.292 208.332ZM113.076 212.172C113.876 212.14 114.788 212.108 115.812 212.076C116.836 212.028 117.924 211.98 119.076 211.932C120.228 211.868 121.388 211.812 122.556 211.764L122.532 213.804C120.932 213.932 119.34 214.06 117.756 214.188C116.172 214.316 114.748 214.42 113.484 214.5L113.076 212.172ZM119.676 210.564L121.716 209.7C122.068 210.148 122.412 210.636 122.748 211.164C123.1 211.676 123.42 212.188 123.708 212.7C123.996 213.212 124.204 213.676 124.332 214.092L122.172 215.076C122.044 214.66 121.844 214.196 121.572 213.684C121.316 213.156 121.02 212.62 120.684 212.076C120.364 211.516 120.028 211.012 119.676 210.564ZM107.412 212.604C108.18 212.364 109.1 212.036 110.172 211.62C111.26 211.204 112.364 210.788 113.484 210.372L113.988 212.484C113.124 212.916 112.228 213.348 111.3 213.78C110.388 214.212 109.548 214.596 108.78 214.932L107.412 212.604ZM108.132 207.3L110.052 205.764C110.468 205.988 110.908 206.252 111.372 206.556C111.852 206.844 112.3 207.14 112.716 207.444C113.148 207.748 113.5 208.028 113.772 208.284L111.756 209.988C111.516 209.732 111.188 209.444 110.772 209.124C110.372 208.804 109.94 208.484 109.476 208.164C109.012 207.844 108.564 207.556 108.132 207.3ZM122.436 211.764L124.404 210.18C124.948 210.452 125.54 210.772 126.18 211.14C126.82 211.508 127.428 211.884 128.004 212.268C128.58 212.636 129.06 212.972 129.444 213.276L127.356 215.028C127.02 214.708 126.572 214.356 126.012 213.972C125.452 213.588 124.86 213.196 124.236 212.796C123.612 212.396 123.012 212.052 122.436 211.764Z" fill="black"/>
<path d="M280.771 314.292H298.915V324.564H280.771V342.612H270.499V324.564H252.355V314.292H270.499V296.052H280.771V314.292Z" fill="#1A2F86"/>
<path d="M194.467 295.38H205.507V346.74H194.467V295.38ZM178.915 310.452V314.772H221.347V310.452H178.915ZM178.915 299.028V303.348H221.347V299.028H178.915ZM167.875 291.54H232.867V322.356H167.875V291.54ZM161.827 326.1H231.331V335.604H172.867V361.908H161.827V326.1ZM228.547 326.1H239.779V351.444C239.779 353.748 239.523 355.572 239.011 356.916C238.563 358.324 237.571 359.412 236.035 360.18C234.563 360.884 232.835 361.3 230.851 361.428C228.867 361.62 226.595 361.716 224.035 361.716C223.779 360.308 223.363 358.74 222.787 357.012C222.211 355.284 221.603 353.78 220.963 352.5C222.307 352.564 223.587 352.596 224.803 352.596C226.083 352.596 226.915 352.596 227.299 352.596C227.811 352.532 228.131 352.436 228.259 352.308C228.451 352.116 228.547 351.796 228.547 351.348V326.1ZM176.803 343.572C180.323 343.444 184.355 343.284 188.899 343.092C193.443 342.9 198.243 342.708 203.299 342.516C208.419 342.26 213.507 342.004 218.563 341.748L218.467 350.676C213.667 350.996 208.803 351.316 203.875 351.636C199.011 351.956 194.339 352.276 189.859 352.596C185.443 352.852 181.379 353.076 177.667 353.268L176.803 343.572ZM210.307 337.524L218.755 335.412C219.843 337.268 220.867 339.284 221.827 341.46C222.787 343.572 223.619 345.684 224.323 347.796C225.091 349.844 225.603 351.7 225.859 353.364L216.835 355.764C216.579 354.1 216.131 352.212 215.491 350.1C214.851 347.988 214.083 345.844 213.187 343.668C212.291 341.492 211.331 339.444 210.307 337.524ZM177.283 271.668H188.515V290.1H177.283V271.668ZM211.363 271.668H222.595V290.1H211.363V271.668ZM158.179 276.468H241.987V286.164H158.179V276.468Z" fill="#1A2F86"/>
<path d="M148.65 318.996C148.65 324.5 148.202 329.428 147.306 333.78C146.474 338.132 145.098 341.844 143.178 344.916C141.322 347.924 138.858 350.228 135.786 351.828C132.778 353.428 129.066 354.228 124.65 354.228C119.146 354.228 114.634 352.82 111.114 350.004C107.594 347.188 104.97 343.156 103.242 337.908C101.578 332.66 100.746 326.356 100.746 318.996C100.746 311.572 101.514 305.236 103.05 299.988C104.586 294.74 107.114 290.708 110.634 287.892C114.154 285.076 118.826 283.668 124.65 283.668C130.154 283.668 134.666 285.076 138.186 287.892C141.706 290.644 144.33 294.676 146.058 299.988C147.786 305.236 148.65 311.572 148.65 318.996ZM115.146 318.996C115.146 324.18 115.434 328.532 116.01 332.052C116.586 335.508 117.546 338.132 118.89 339.924C120.298 341.652 122.218 342.516 124.65 342.516C127.082 342.516 128.97 341.652 130.314 339.924C131.722 338.196 132.714 335.604 133.29 332.148C133.93 328.628 134.25 324.244 134.25 318.996C134.25 313.748 133.93 309.396 133.29 305.94C132.714 302.42 131.722 299.796 130.314 298.068C128.97 296.276 127.082 295.38 124.65 295.38C122.218 295.38 120.298 296.276 118.89 298.068C117.546 299.796 116.586 302.42 116.01 305.94C115.434 309.396 115.146 313.748 115.146 318.996Z" fill="#1A2F86"/>
<path d="M94.096 353.268H46.192V343.188L63.376 325.812C66.832 322.228 69.616 319.252 71.728 316.884C73.84 314.452 75.376 312.276 76.336 310.356C77.296 308.372 77.776 306.26 77.776 304.02C77.776 301.268 77.008 299.22 75.472 297.876C74 296.532 71.984 295.86 69.424 295.86C66.8 295.86 64.24 296.468 61.744 297.684C59.248 298.9 56.624 300.628 53.872 302.868L46 293.556C47.984 291.828 50.064 290.228 52.24 288.756C54.48 287.284 57.04 286.1 59.92 285.204C62.864 284.244 66.384 283.764 70.48 283.764C74.96 283.764 78.8 284.596 82 286.26C85.264 287.86 87.76 290.068 89.488 292.884C91.28 295.636 92.176 298.772 92.176 302.292C92.176 305.172 91.728 307.828 90.832 310.26C90 312.692 88.752 315.06 87.088 317.364C85.488 319.604 83.504 321.94 81.136 324.372C78.768 326.74 76.08 329.332 73.072 332.148L64.24 340.404V341.076H94.096V353.268Z" fill="#1A2F86"/>
<path d="M227.188 387.888H259.228V391.272H227.188V387.888ZM230.932 393.828H258.94V396.744H230.932V393.828ZM237.7 405.996H259.084V408.768H237.7V405.996ZM236.944 409.992H255.7V412.8H236.944V409.992ZM234.748 385.98H239.032V393.144H234.748V385.98ZM247.456 385.98H251.74V393.144H247.456V385.98ZM240.976 392.1H245.044V395.016H240.976V392.1ZM237.268 395.844H240.868V403.008H237.268V395.844ZM245.116 395.844H248.752V403.008H245.116V395.844ZM228.988 393.828H232.984V401.82C232.984 403.116 232.936 404.532 232.84 406.068C232.768 407.604 232.6 409.176 232.336 410.784C232.096 412.368 231.736 413.904 231.256 415.392C230.776 416.88 230.152 418.248 229.384 419.496C229.12 419.256 228.772 419.004 228.34 418.74C227.908 418.476 227.464 418.212 227.008 417.948C226.576 417.684 226.192 417.492 225.856 417.372C226.576 416.244 227.14 415.02 227.548 413.7C227.98 412.356 228.292 410.988 228.484 409.596C228.7 408.204 228.832 406.848 228.88 405.528C228.952 404.184 228.988 402.936 228.988 401.784V393.828ZM231.508 398.256H257.464V404.736H231.508V402.36H253.252V400.632H231.508V398.256ZM235.684 403.872L239.644 404.268C239.428 405.3 239.176 406.368 238.888 407.472C238.624 408.552 238.36 409.608 238.096 410.64C237.832 411.648 237.58 412.536 237.34 413.304L233.416 412.98C233.68 412.164 233.944 411.24 234.208 410.208C234.496 409.176 234.76 408.108 235 407.004C235.264 405.9 235.492 404.856 235.684 403.872ZM254.656 409.992H258.652C258.652 409.992 258.64 410.16 258.616 410.496C258.616 410.832 258.592 411.108 258.544 411.324C258.448 412.788 258.328 414.012 258.184 414.996C258.04 415.98 257.872 416.76 257.68 417.336C257.512 417.912 257.296 418.356 257.032 418.668C256.696 419.004 256.336 419.244 255.952 419.388C255.592 419.532 255.184 419.628 254.728 419.676C254.344 419.724 253.828 419.748 253.18 419.748C252.556 419.772 251.872 419.772 251.128 419.748C251.104 419.268 251.008 418.728 250.84 418.128C250.672 417.552 250.468 417.048 250.228 416.616C250.78 416.664 251.272 416.688 251.704 416.688C252.136 416.712 252.472 416.724 252.712 416.724C252.928 416.724 253.108 416.7 253.252 416.652C253.42 416.628 253.564 416.556 253.684 416.436C253.876 416.196 254.056 415.632 254.224 414.744C254.392 413.832 254.536 412.404 254.656 410.46V409.992ZM233.884 413.304L237.052 414.6C236.668 415.56 236.176 416.508 235.576 417.444C235 418.404 234.28 419.22 233.416 419.892L230.428 417.948C231.196 417.396 231.88 416.7 232.48 415.86C233.104 414.996 233.572 414.144 233.884 413.304ZM238.024 414.168L241.192 413.772C241.408 414.588 241.576 415.488 241.696 416.472C241.84 417.432 241.912 418.26 241.912 418.956L238.528 419.46C238.576 418.74 238.54 417.888 238.42 416.904C238.324 415.92 238.192 415.008 238.024 414.168ZM242.596 414.204L245.584 413.34C245.968 414.012 246.316 414.78 246.628 415.644C246.964 416.508 247.192 417.252 247.312 417.876L244.144 418.884C244.048 418.26 243.844 417.504 243.532 416.616C243.244 415.728 242.932 414.924 242.596 414.204ZM247.132 413.7L249.868 412.584C250.3 413.04 250.72 413.568 251.128 414.168C251.56 414.744 251.884 415.26 252.1 415.716L249.256 417.048C249.04 416.568 248.728 416.016 248.32 415.392C247.936 414.768 247.54 414.204 247.132 413.7Z" fill="#1A2F86"/>
<path d="M206.2 399.768H222.364V403.368H206.2V399.768ZM206.2 406.86H222.364V410.496H206.2V406.86ZM205.732 414.096H223.984V417.984H205.732V414.096ZM212.752 394.692H216.748V415.248H212.752V394.692ZM215.056 386.052L219.628 386.988C218.98 388.572 218.296 390.156 217.576 391.74C216.856 393.3 216.196 394.62 215.596 395.7L211.924 394.764C212.332 393.972 212.728 393.072 213.112 392.064C213.496 391.056 213.856 390.036 214.192 389.004C214.552 387.948 214.84 386.964 215.056 386.052ZM206.812 385.908L210.952 386.952C210.376 388.92 209.668 390.864 208.828 392.784C208.012 394.704 207.1 396.492 206.092 398.148C205.084 399.804 204.004 401.268 202.852 402.54C202.684 402.228 202.432 401.832 202.096 401.352C201.76 400.872 201.412 400.392 201.052 399.912C200.692 399.408 200.38 399.012 200.116 398.724C201.604 397.212 202.924 395.328 204.076 393.072C205.228 390.792 206.14 388.404 206.812 385.908ZM208.576 392.568H223.3V396.348H208.576V419.784H204.4V394.728L206.524 392.568H208.576ZM189.928 404.412C191.44 404.1 193.24 403.692 195.328 403.188C197.44 402.66 199.564 402.12 201.7 401.568L202.204 405.42C200.26 405.972 198.292 406.536 196.3 407.112C194.308 407.664 192.484 408.168 190.828 408.624L189.928 404.412ZM190.648 392.82H201.772V396.78H190.648V392.82ZM194.86 386.016H199V414.96C199 416.016 198.892 416.856 198.676 417.48C198.46 418.104 198.064 418.584 197.488 418.92C196.888 419.28 196.144 419.508 195.256 419.604C194.392 419.724 193.336 419.784 192.088 419.784C192.04 419.208 191.896 418.512 191.656 417.696C191.416 416.88 191.152 416.172 190.864 415.572C191.584 415.596 192.256 415.62 192.88 415.644C193.528 415.644 193.972 415.632 194.212 415.608C194.452 415.608 194.62 415.56 194.716 415.464C194.812 415.368 194.86 415.188 194.86 414.924V386.016Z" fill="#1A2F86"/>
<path d="M172.324 389.436H182.872V392.604H172.324V389.436ZM175.78 385.98H179.308C179.284 388.284 179.188 390.372 179.02 392.244C178.876 394.092 178.576 395.736 178.12 397.176C177.688 398.592 177.028 399.84 176.14 400.92C175.252 401.976 174.064 402.876 172.576 403.62C172.384 403.212 172.084 402.744 171.676 402.216C171.268 401.664 170.884 401.232 170.524 400.92C171.748 400.32 172.708 399.588 173.404 398.724C174.124 397.836 174.64 396.792 174.952 395.592C175.264 394.368 175.468 392.976 175.564 391.416C175.684 389.832 175.756 388.02 175.78 385.98ZM171.604 395.844L173.512 393.432C174.4 393.84 175.336 394.32 176.32 394.872C177.304 395.4 178.228 395.952 179.092 396.528C179.98 397.104 180.712 397.656 181.288 398.184L179.236 400.884C178.708 400.356 178.012 399.792 177.148 399.192C176.308 398.568 175.396 397.968 174.412 397.392C173.452 396.792 172.516 396.276 171.604 395.844ZM180.928 389.436H184.42V398.76C184.42 399.456 184.444 399.852 184.492 399.948C184.564 400.044 184.66 400.092 184.78 400.092C184.828 400.092 184.888 400.092 184.96 400.092C185.032 400.092 185.092 400.092 185.14 400.092C185.212 400.092 185.272 400.08 185.32 400.056C185.392 400.032 185.44 399.996 185.464 399.948C185.536 399.876 185.608 399.6 185.68 399.12C185.704 398.856 185.716 398.448 185.716 397.896C185.74 397.32 185.752 396.66 185.752 395.916C186.088 396.18 186.508 396.444 187.012 396.708C187.516 396.972 187.996 397.176 188.452 397.32C188.428 398.064 188.38 398.82 188.308 399.588C188.236 400.356 188.14 400.908 188.02 401.244C187.804 401.916 187.456 402.396 186.976 402.684C186.76 402.828 186.496 402.936 186.184 403.008C185.896 403.056 185.608 403.08 185.32 403.08C185.08 403.08 184.816 403.08 184.528 403.08C184.264 403.08 184.024 403.08 183.808 403.08C183.424 403.08 183.028 403.02 182.62 402.9C182.236 402.756 181.924 402.552 181.684 402.288C181.42 402 181.228 401.628 181.108 401.172C180.988 400.692 180.928 399.888 180.928 398.76V389.436ZM157.456 407.868H185.212V410.712H157.456V407.868ZM156.484 387.564H170.38V390.084H156.484V387.564ZM154.936 391.2H171.892V393.72H154.936V391.2ZM154.972 411.936H187.408V414.852H154.972V411.936ZM169.048 404.412H173.332V416.112C173.332 417.072 173.188 417.78 172.9 418.236C172.636 418.716 172.144 419.076 171.424 419.316C170.704 419.556 169.84 419.7 168.832 419.748C167.824 419.796 166.624 419.82 165.232 419.82C165.112 419.316 164.92 418.764 164.656 418.164C164.392 417.564 164.128 417.036 163.864 416.58C164.44 416.604 165.028 416.616 165.628 416.616C166.252 416.64 166.804 416.64 167.284 416.616C167.764 416.616 168.1 416.616 168.292 416.616C168.556 416.616 168.748 416.568 168.868 416.472C168.988 416.376 169.048 416.208 169.048 415.968V404.412ZM181.54 403.08L183.7 405.564C181.972 405.756 180.076 405.936 178.012 406.104C175.972 406.248 173.836 406.368 171.604 406.464C169.396 406.536 167.176 406.596 164.944 406.644C162.712 406.668 160.54 406.68 158.428 406.68C158.404 406.32 158.32 405.9 158.176 405.42C158.032 404.916 157.888 404.496 157.744 404.16C159.832 404.136 161.968 404.1 164.152 404.052C166.36 404.004 168.52 403.932 170.632 403.836C172.744 403.74 174.724 403.632 176.572 403.512C178.444 403.392 180.1 403.248 181.54 403.08ZM161.56 386.016H165.484V392.712H161.56V386.016ZM156.376 399.372H170.596V401.928H156.376V399.372ZM155.44 395.7H171.424V398.256H155.44V395.7ZM161.56 396.816H165.484V403.656H161.56V396.816ZM157.78 393.828L160.84 393.108C161.08 393.468 161.308 393.888 161.524 394.368C161.74 394.824 161.884 395.22 161.956 395.556L158.716 396.456C158.668 396.072 158.548 395.64 158.356 395.16C158.188 394.68 157.996 394.236 157.78 393.828ZM166.024 393.036L169.48 393.72C169.192 394.248 168.928 394.728 168.688 395.16C168.472 395.568 168.268 395.94 168.076 396.276L165.016 395.592C165.184 395.184 165.364 394.74 165.556 394.26C165.748 393.78 165.904 393.372 166.024 393.036Z" fill="#1A2F86"/>
<path d="M134.056 400.02H139.204V403.548H134.056V400.02ZM137.872 400.02H141.436C141.436 400.02 141.436 400.2 141.436 400.56C141.436 400.92 141.436 401.22 141.436 401.46C141.388 403.908 141.328 405.924 141.256 407.508C141.208 409.092 141.124 410.316 141.004 411.18C140.884 412.044 140.704 412.644 140.464 412.98C140.176 413.388 139.888 413.676 139.6 413.844C139.312 414.012 138.952 414.144 138.52 414.24C138.16 414.312 137.716 414.36 137.188 414.384C136.684 414.408 136.12 414.42 135.496 414.42C135.496 413.772 135.4 413.088 135.208 412.368C135.04 411.648 134.824 411.024 134.56 410.496C134.992 410.544 135.376 410.58 135.712 410.604C136.048 410.604 136.312 410.604 136.504 410.604C136.696 410.604 136.852 410.58 136.972 410.532C137.116 410.484 137.248 410.376 137.368 410.208C137.464 410.016 137.536 409.608 137.584 408.984C137.656 408.336 137.704 407.34 137.728 405.996C137.776 404.652 137.824 402.852 137.872 400.596V400.02ZM146.044 387.672L148.816 386.16C149.44 386.808 150.064 387.552 150.688 388.392C151.336 389.208 151.816 389.928 152.128 390.552L149.176 392.208C148.888 391.608 148.444 390.876 147.844 390.012C147.244 389.124 146.644 388.344 146.044 387.672ZM148.204 398.256L151.696 399.732C150.952 402.636 150.004 405.36 148.852 407.904C147.7 410.424 146.404 412.68 144.964 414.672C143.524 416.664 141.976 418.332 140.32 419.676C140.056 419.364 139.66 418.98 139.132 418.524C138.628 418.092 138.148 417.744 137.692 417.48C140.068 415.56 142.18 412.956 144.028 409.668C145.876 406.356 147.268 402.552 148.204 398.256ZM141.796 386.016H145.576C145.552 389.136 145.576 392.136 145.648 395.016C145.72 397.872 145.84 400.5 146.008 402.9C146.176 405.3 146.392 407.4 146.656 409.2C146.92 410.976 147.22 412.368 147.556 413.376C147.916 414.36 148.312 414.876 148.744 414.924C148.984 414.924 149.188 414.492 149.356 413.628C149.548 412.764 149.692 411.552 149.788 409.992C149.98 410.232 150.256 410.508 150.616 410.82C151 411.132 151.372 411.42 151.732 411.684C152.116 411.924 152.416 412.092 152.632 412.188C152.344 414.276 151.972 415.872 151.516 416.976C151.06 418.08 150.58 418.824 150.076 419.208C149.572 419.616 149.092 419.82 148.636 419.82C147.508 419.772 146.548 419.22 145.756 418.164C144.964 417.108 144.316 415.608 143.812 413.664C143.332 411.696 142.948 409.344 142.66 406.608C142.396 403.848 142.192 400.74 142.048 397.284C141.928 393.828 141.844 390.072 141.796 386.016ZM132.94 392.316H151.912V396.168H132.94V392.316ZM131.392 392.316H135.28V401.712C135.28 403.032 135.232 404.484 135.136 406.068C135.064 407.628 134.908 409.248 134.668 410.928C134.452 412.584 134.128 414.192 133.696 415.752C133.264 417.288 132.712 418.68 132.04 419.928C131.824 419.664 131.512 419.352 131.104 418.992C130.72 418.656 130.324 418.332 129.916 418.02C129.508 417.708 129.16 417.48 128.872 417.336C129.64 415.824 130.192 414.156 130.528 412.332C130.888 410.484 131.116 408.636 131.212 406.788C131.332 404.94 131.392 403.248 131.392 401.712V392.316ZM119.728 397.032H129.304V400.308H119.728V397.032ZM119.98 387.132H129.232V390.372H119.98V387.132ZM119.728 401.964H129.304V405.204H119.728V401.964ZM118.252 391.956H130.24V395.376H118.252V391.956ZM121.708 406.932H129.268V417.84H121.708V414.456H125.812V410.316H121.708V406.932ZM119.62 406.932H123.004V419.316H119.62V406.932Z" fill="#1A2F86"/>
<path d="M89.6317 404.844H109.36V408.84H89.6317V404.844ZM89.9917 395.556H111.916V410.64H107.524V399.552H89.9917V395.556ZM107.668 386.016L111.124 389.22C109.132 389.868 106.924 390.456 104.5 390.984C102.1 391.488 99.6277 391.932 97.0837 392.316C94.5397 392.676 92.0677 392.988 89.6677 393.252C89.5957 392.772 89.4397 392.184 89.1997 391.488C88.9597 390.792 88.7197 390.228 88.4797 389.796C90.2077 389.58 91.9597 389.34 93.7357 389.076C95.5117 388.812 97.2517 388.524 98.9557 388.212C100.66 387.9 102.256 387.552 103.744 387.168C105.232 386.784 106.54 386.4 107.668 386.016ZM87.2197 388.788L92.6197 390.3C92.5717 390.612 92.2357 390.828 91.6117 390.948V399.372C91.6117 400.788 91.5397 402.384 91.3957 404.16C91.2757 405.912 91.0117 407.724 90.6037 409.596C90.2197 411.444 89.6317 413.256 88.8397 415.032C88.0717 416.784 87.0517 418.38 85.7797 419.82C85.5637 419.508 85.2517 419.148 84.8437 418.74C84.4597 418.356 84.0397 417.984 83.5837 417.624C83.1277 417.288 82.7077 417.036 82.3237 416.868C83.4517 415.596 84.3397 414.216 84.9877 412.728C85.6357 411.24 86.1157 409.728 86.4277 408.192C86.7637 406.632 86.9797 405.096 87.0757 403.584C87.1717 402.048 87.2197 400.62 87.2197 399.3V388.788Z" fill="#1A2F86"/>
<path d="M52.768 388.392H74.836V392.532H52.768V388.392ZM52.768 396.708H74.908V400.74H52.768V396.708ZM52.696 405.204H75.052V409.272H52.696V405.204ZM50.284 388.392H54.532V401.352C54.532 402.768 54.472 404.316 54.352 405.996C54.232 407.676 53.992 409.368 53.632 411.072C53.296 412.752 52.78 414.36 52.084 415.896C51.412 417.432 50.524 418.8 49.42 420C49.204 419.712 48.88 419.388 48.448 419.028C48.016 418.668 47.572 418.32 47.116 417.984C46.684 417.648 46.312 417.384 46 417.192C46.984 416.112 47.764 414.924 48.34 413.628C48.916 412.308 49.336 410.952 49.6 409.56C49.888 408.144 50.068 406.74 50.14 405.348C50.236 403.932 50.284 402.588 50.284 401.316V388.392ZM73.324 388.392H77.644V414.708C77.644 415.86 77.5 416.748 77.212 417.372C76.924 418.02 76.408 418.512 75.664 418.848C74.944 419.184 74.02 419.4 72.892 419.496C71.764 419.592 70.372 419.628 68.716 419.604C68.644 419.028 68.464 418.332 68.176 417.516C67.888 416.7 67.6 416.016 67.312 415.464C68.008 415.488 68.704 415.512 69.4 415.536C70.096 415.536 70.708 415.536 71.236 415.536C71.788 415.536 72.184 415.536 72.424 415.536C72.76 415.536 72.988 415.476 73.108 415.356C73.252 415.236 73.324 415.008 73.324 414.672V388.392ZM61.372 390.048H65.728V419.352H61.372V390.048Z" fill="#1A2F86"/>
<mask id="mask0_109_201" style="mask-type:alpha" maskUnits="userSpaceOnUse" x="0" y="0" width="480" height="466">
<rect width="480" height="466" rx="32" fill="#D9D9D9"/>
</mask>
<g mask="url(#mask0_109_201)">
<path d="M487.533 139.968C469.164 130.084 447.902 128.608 427.579 124.695C407.255 120.781 385.883 113.136 374.14 95.3922C368.324 86.5865 365.384 75.7411 365.925 65.0615C366.131 61.0318 366.497 56.2226 363.43 53.7683C356.343 48.1134 351.465 59.6222 349.574 64.7298C346.761 72.3415 345.792 80.716 346.92 88.7921C347.158 90.4504 347.46 92.1253 347.301 93.8002C347.127 95.4751 346.38 97.1666 344.965 97.9792C343.329 98.9079 341.327 98.4269 339.531 97.9294C334.589 96.5365 329.631 95.1601 324.69 93.7671C320.383 92.5565 315.966 90.6826 311.517 90.6992C306.32 90.6992 300.203 91.8102 297.914 96.6691C296.357 99.9692 297.215 104.065 299.17 107.133C301.124 110.201 304.016 112.456 306.861 114.645C300.775 114.082 294.657 118.741 293.29 124.944C291.924 131.146 295.515 138.127 301.22 140.383C297.184 141.792 294.307 146.22 294.562 150.664C294.816 155.108 298.169 159.138 302.348 160.034C299.329 162.488 298.407 167.082 299.519 170.912C300.616 174.743 303.428 177.827 306.622 180C313.439 184.627 321.893 185.555 329.981 186.368C339.642 187.33 349.304 188.291 358.965 189.253C367.832 190.132 377.048 190.381 385.66 192.587C394.813 194.941 404.3 196.169 413.516 198.324C422.764 200.48 431.965 202.868 441.133 205.372C454.894 209.137 468.576 213.2 482.257 217.262L487.565 139.968H487.533Z" fill="#EDABA7"/>
<path d="M391.159 107.465L372.059 197.346L487.914 226.715L497.973 137.215L391.159 107.465Z" fill="#F7BF4F"/>
<path d="M400.915 204.676C401.376 201.79 401.853 198.921 402.313 196.036C406.365 171.227 410.417 146.402 414.469 121.594C414.867 119.156 415.264 116.718 415.661 114.297" stroke="white" stroke-width="4" stroke-miterlimit="10"/>
</g>
</svg>
